Coordinates
version=1
nRows=39
nColumns=34
inDegrees=no

Units are S.I. units (second, meters, Newtons, ...)
If the header above contains a line with 'inDegrees', this indicates whether rotational values are in degrees (yes) or radians (no).

endheader
time	pelvis_tilt	pelvis_list	pelvis_rotation	pelvis_tx	pelvis_ty	pelvis_tz	hip_flexion_r	hip_adduction_r	hip_rotation_r	knee_angle_r	ankle_angle_r	subtalar_angle_r	mtp_angle_r	hip_flexion_l	hip_adduction_l	hip_rotation_l	knee_angle_l	ankle_angle_l	subtalar_angle_l	mtp_angle_l	lumbar_extension	lumbar_bending	lumbar_rotation	arm_flex_r	arm_add_r	arm_rot_r	elbow_flex_r	pro_sup_r	arm_flex_l	arm_add_l	arm_rot_l	elbow_flex_l	pro_sup_l
0	0.0234817	0.0482196	0.0521375	-0.173148	0.917239	-0.29087	0.477641	-0.0898735	-0.226367	0.148889	0.179244	0.120975	0	-0.364361	0.0249328	-0.022363	0.234504	0.357473	0.27045	0	-0.128746	-0.0317276	-0.201526	-0.217458	-0.135987	-0.196463	0.513669	2.09	0.218503	-0.198853	0.0346974	0.997049	2.09
0.01	0.0192254	0.0448796	0.0479365	-0.158886	0.91632	-0.288668	0.48929	-0.0845343	-0.224387	0.180356	0.152795	0.12016	0	-0.354329	0.0186284	-0.0311163	0.269386	0.336134	0.276569	0	-0.120563	-0.0276944	-0.186599	-0.21956	-0.132274	-0.2078	0.507168	2.09	0.215579	-0.190629	0.0393178	0.98105	2.09
0.02	0.0167526	0.0365572	0.0436416	-0.143432	0.915697	-0.286248	0.495042	-0.0733674	-0.222937	0.207895	0.128319	0.116627	0	-0.34824	0.00591585	-0.0449077	0.301852	0.311609	0.286744	0	-0.112475	-0.0177213	-0.176627	-0.220983	-0.130126	-0.217404	0.500998	2.09	0.204641	-0.182723	0.035975	0.969948	2.09
0.03	0.0149246	0.0263764	0.0388842	-0.12763	0.915397	-0.283705	0.499258	-0.0600496	-0.220574	0.236041	0.108163	0.112032	0	-0.341043	-0.00912612	-0.0599214	0.337043	0.282204	0.294946	0	-0.104962	-0.00545294	-0.168879	-0.221037	-0.128981	-0.224289	0.494933	2.09	0.19002	-0.174741	0.0277892	0.960524	2.09
0.04	0.0134082	0.0156878	0.0333279	-0.111758	0.915451	-0.281057	0.502795	-0.046011	-0.217404	0.265541	0.0946956	0.108222	0	-0.330542	-0.0247565	-0.0745216	0.377468	0.2464	0.297508	0	-0.0981147	0.00748554	-0.16139	-0.220078	-0.128278	-0.229866	0.489544	2.09	0.173826	-0.166319	0.016783	0.950628	2.09
0.05	0.0121011	0.00500064	0.026862	-0.0959546	0.915855	-0.278313	0.505528	-0.0317075	-0.213716	0.295884	0.0889853	0.105705	0	-0.315424	-0.0405344	-0.0883149	0.424752	0.203316	0.292448	0	-0.0920012	0.0204567	-0.153225	-0.218347	-0.127766	-0.234815	0.485269	2.09	0.157121	-0.157338	0.00399895	0.93919	2.09
0.06	0.010805	-0.00488765	0.0198573	-0.0802327	0.916487	-0.275455	0.50813	-0.0182704	-0.210593	0.327987	0.0921779	0.105384	0	-0.294995	-0.0561176	-0.100932	0.479408	0.15256	0.278667	0	-0.0862592	0.0323786	-0.144291	-0.216432	-0.127064	-0.239487	0.482661	2.09	0.140258	-0.148226	-0.00961688	0.92609	2.09
0.07	0.00988302	-0.0171167	0.0122049	-0.0649128	0.917592	-0.272632	0.506353	-0.00153547	-0.207129	0.353477	0.0981241	0.103802	0	-0.269256	-0.0747894	-0.112946	0.541175	0.0935504	0.253974	0	-0.0820878	0.0472345	-0.134359	-0.213026	-0.127319	-0.243015	0.481149	2.09	0.12449	-0.138037	-0.0237952	0.909735	2.09
0.08	0.00959583	-0.0300055	0.00509994	-0.0497773	0.91892	-0.269761	0.501379	0.0162816	-0.203586	0.375362	0.107981	0.100549	0	-0.239921	-0.0955439	-0.122934	0.60736	0.0272955	0.219324	0	-0.0790789	0.0626239	-0.124246	-0.2095	-0.127666	-0.245572	0.481545	2.09	0.109424	-0.128127	-0.0370061	0.891135	2.09
0.09	0.0105145	-0.0462468	-0.0011711	-0.0349942	0.92068	-0.266957	0.488912	0.0388934	-0.19857	0.385748	0.116112	0.0926713	0	-0.208656	-0.121053	-0.130746	0.675369	-0.0441435	0.175482	0	-0.0783537	0.0818206	-0.114127	-0.204953	-0.128991	-0.246403	0.483278	2.09	0.0958547	-0.117905	-0.0489122	0.869201	2.09
0.1	0.00759218	-0.0567826	-0.00875567	-0.0206662	0.921963	-0.264135	0.483766	0.0548673	-0.194964	0.401871	0.130167	0.0910971	0	-0.170946	-0.140103	-0.134529	0.74321	-0.116497	0.121894	0	-0.0739937	0.094274	-0.102285	-0.201121	-0.129563	-0.246501	0.487307	2.09	0.0827919	-0.109376	-0.0584834	0.846015	2.09
0.11	0.00466893	-0.0669734	-0.0156618	-0.0067474	0.923421	-0.261491	0.475345	0.070212	-0.193238	0.411768	0.14477	0.0929948	0	-0.132156	-0.158253	-0.134048	0.808062	-0.1844	0.0622784	0	-0.070446	0.106354	-0.090569	-0.196462	-0.130654	-0.24479	0.492423	2.09	0.0711219	-0.101399	-0.0662321	0.820166	2.09
0.12	0.00365893	-0.0778379	-0.0209166	0.00691986	0.925238	-0.259031	0.460953	0.0864726	-0.191002	0.414201	0.157481	0.0930493	0	-0.0953043	-0.177169	-0.130384	0.868546	-0.238258	0.00612665	0	-0.0695239	0.119	-0.0798808	-0.19075	-0.132339	-0.240789	0.498192	2.09	0.0607997	-0.0940564	-0.0724635	0.791963	2.09
0.13	0.0042484	-0.0884053	-0.0241498	0.0203129	0.927401	-0.256852	0.441435	0.102178	-0.188776	0.409969	0.168699	0.0927277	0	-0.0597611	-0.194498	-0.121912	0.92428	-0.275238	-0.0488992	0	-0.0707845	0.13116	-0.0707766	-0.18374	-0.134561	-0.234515	0.504185	2.09	0.0518104	-0.0874919	-0.0772607	0.761576	2.09
0.14	0.00290022	-0.0929178	-0.0272615	0.0332979	0.929314	-0.254842	0.426876	0.110171	-0.188545	0.410697	0.183673	0.0980693	0	-0.0212436	-0.203505	-0.110296	0.975985	-0.293066	-0.102163	0	-0.0701591	0.136226	-0.0619929	-0.176137	-0.136182	-0.226619	0.510734	2.09	0.0433895	-0.0829445	-0.0804451	0.730732	2.09
0.15	0.00274079	-0.0965815	-0.0282144	0.0460184	0.931519	-0.253124	0.408763	0.116548	-0.189578	0.406737	0.197752	0.104535	0	0.0167369	-0.210127	-0.0955079	1.02264	-0.293159	-0.151179	0	-0.0710455	0.14017	-0.0552774	-0.167112	-0.13819	-0.216676	0.517181	2.09	0.0359562	-0.0794579	-0.0822286	0.698664	2.09
0.16	0.00311863	-0.0983169	-0.0274944	0.0585091	0.933882	-0.251618	0.389384	0.120366	-0.190982	0.400941	0.211083	0.110688	0	0.0547195	-0.213181	-0.0787308	1.06377	-0.279007	-0.194331	0	-0.0725539	0.141688	-0.0503244	-0.157034	-0.14013	-0.205561	0.523795	2.09	0.029017	-0.0773528	-0.0827309	0.666427	2.09
0.17	0.00327774	-0.0981428	-0.0254466	0.0707786	0.936327	-0.250292	0.369876	0.121539	-0.193639	0.393934	0.224035	0.117986	0	0.0933631	-0.212463	-0.0607503	1.09893	-0.257416	-0.23298	0	-0.0737894	0.140854	-0.0469454	-0.146178	-0.142012	-0.193391	0.530701	2.09	0.022237	-0.0766027	-0.0819316	0.634552	2.09
0.18	0.00312709	-0.0963282	-0.0226957	0.0828625	0.938839	-0.249068	0.350289	0.120724	-0.196807	0.385679	0.236259	0.125934	0	0.132172	-0.208502	-0.0429761	1.12764	-0.232404	-0.265024	0	-0.074675	0.137963	-0.0445914	-0.134753	-0.143737	-0.180905	0.53808	2.09	0.0152722	-0.0770368	-0.0804247	0.603796	2.09
0.19	0.00255845	-0.093237	-0.019831	0.0947948	0.941398	-0.247886	0.33067	0.118608	-0.199787	0.376122	0.247461	0.134128	0	0.170707	-0.201922	-0.026486	1.1497	-0.207088	-0.289646	0	-0.0751117	0.133442	-0.0427425	-0.122976	-0.145312	-0.168563	0.5461	2.09	0.00781523	-0.0784232	-0.0788847	0.574767	2.09
0.2	0.00155436	-0.0892405	-0.0174011	0.106604	0.943974	-0.246697	0.310999	0.115816	-0.201884	0.365265	0.257446	0.142228	0	0.208507	-0.193408	-0.012101	1.16512	-0.182829	-0.306426	0	-0.0751104	0.127742	-0.0409218	-0.111	-0.146805	-0.156649	0.554888	2.09	-0.000386227	-0.0805059	-0.0780417	0.547966	2.09
0.21	0.000377408	-0.0840126	-0.0157901	0.118275	0.946597	-0.24548	0.291082	0.112089	-0.202492	0.353277	0.26616	0.150096	0	0.244684	-0.182884	-0.000689965	1.1735	-0.159558	-0.315023	0	-0.0750877	0.120527	-0.0388724	-0.0986061	-0.148143	-0.145231	0.564169	2.09	-0.00935971	-0.0832009	-0.0784624	0.52364	2.09
0.22	-0.00149076	-0.0797577	-0.0154593	0.129933	0.949035	-0.244208	0.271509	0.109479	-0.203422	0.340562	0.274668	0.160264	0	0.280358	-0.17326	0.0084016	1.17682	-0.136022	-0.315453	0	-0.0742159	0.114415	-0.0360288	-0.0866322	-0.149851	-0.13509	0.575104	2.09	-0.0197266	-0.0857632	-0.0812813	0.502541	2.09
0.23	-0.00346297	-0.0756706	-0.016616	0.14154	0.951368	-0.242863	0.251406	0.108221	-0.199117	0.32613	0.280246	0.164213	0	0.314333	-0.163823	0.0144531	1.17423	-0.113535	-0.31033	0	-0.0733085	0.108486	-0.0322465	-0.0744592	-0.151873	-0.125145	0.586654	2.09	-0.0311409	-0.0886422	-0.0848357	0.484151	2.09
0.24	-0.00504561	-0.0697946	-0.0187842	0.152973	0.9537	-0.241504	0.231033	0.105067	-0.193753	0.311512	0.285265	0.168121	0	0.345219	-0.152664	0.0166777	1.16419	-0.0893259	-0.297223	0	-0.0732302	0.100537	-0.0281489	-0.0612518	-0.15343	-0.116342	0.597821	2.09	-0.0431143	-0.0919645	-0.0903436	0.468371	2.09
0.25	-0.00650213	-0.0647348	-0.022307	0.164425	0.955784	-0.240092	0.210468	0.102908	-0.187505	0.296603	0.289897	0.1713	0	0.37416	-0.143142	0.0161482	1.14906	-0.0639837	-0.27839	0	-0.0732472	0.0935893	-0.0230968	-0.0480151	-0.155215	-0.108723	0.609646	2.09	-0.0561505	-0.0952117	-0.0973193	0.455376	2.09
0.26	-0.00754062	-0.0597206	-0.0268113	0.175844	0.957656	-0.238652	0.189743	0.100744	-0.180603	0.281905	0.294288	0.173565	0	0.400402	-0.134483	0.0127467	1.12814	-0.0377176	-0.254627	0	-0.0738048	0.086749	-0.0174017	-0.0344247	-0.156955	-0.102183	0.621575	2.09	-0.0697938	-0.0985828	-0.105314	0.444629	2.09
0.27	-0.00790449	-0.0548958	-0.0321582	0.187238	0.959306	-0.237179	0.1687	0.0987143	-0.172688	0.267641	0.298419	0.174339	0	0.423465	-0.127154	0.00649323	1.10151	-0.00996822	-0.225335	0	-0.0751908	0.0801428	-0.0110906	-0.0205291	-0.158682	-0.0964657	0.633623	2.09	-0.0838158	-0.102028	-0.114297	0.435808	2.09
0.28	-0.00778907	-0.0503246	-0.0380293	0.198598	0.960691	-0.235716	0.147868	0.0965898	-0.164803	0.254491	0.302934	0.175078	0	0.443582	-0.120758	-0.00179898	1.06927	0.0156873	-0.195043	0	-0.077188	0.0738905	-0.00433696	-0.00654666	-0.16048	-0.0915535	0.646034	2.09	-0.0979531	-0.105513	-0.123712	0.428418	2.09
0.29	-0.00715157	-0.0461875	-0.0443622	0.20993	0.9618	-0.234261	0.127237	0.0945358	-0.156835	0.242608	0.308038	0.176017	0	0.4606	-0.115573	-0.011886	1.03164	0.0387616	-0.163597	0	-0.0798679	0.0681792	0.00286255	0.00739841	-0.162476	-0.0871009	0.658946	2.09	-0.112049	-0.108928	-0.133675	0.422234	2.09
0.3	-0.00630171	-0.0426241	-0.0509989	0.221236	0.9626	-0.232837	0.107215	0.0926066	-0.149281	0.232215	0.314128	0.177925	0	0.474929	-0.111367	-0.0229384	0.9889	0.056701	-0.133591	0	-0.0828936	0.0632049	0.0104082	0.0211394	-0.164783	-0.0829347	0.672429	2.09	-0.125986	-0.112204	-0.143865	0.416998	2.09
0.31	-0.00515407	-0.0398008	-0.0580731	0.232534	0.963099	-0.231416	0.0874584	0.0911426	-0.141231	0.222922	0.321003	0.179878	0	0.486371	-0.108687	-0.03514	0.941423	0.070373	-0.102594	0	-0.0863963	0.0591009	0.0183914	0.0347048	-0.167427	-0.0787945	0.686341	2.09	-0.139796	-0.115164	-0.155046	0.413001	2.09
0.32	-0.00405421	-0.0378063	-0.0654759	0.24383	0.963273	-0.230012	0.0682274	0.0902479	-0.132811	0.214588	0.328699	0.181834	0	0.49542	-0.107286	-0.04776	0.889654	0.0784184	-0.0721784	0	-0.0899785	0.0559994	0.0266621	0.0480946	-0.170413	-0.0745701	0.700436	2.09	-0.153522	-0.117747	-0.167031	0.410349	2.09
0.33	-0.00282358	-0.0368331	-0.0732866	0.255141	0.963151	-0.228593	0.0485629	0.0907212	-0.119913	0.205752	0.335216	0.177661	0	0.501844	-0.107686	-0.0611281	0.834137	0.0825807	-0.0397704	0	-0.0938479	0.0540003	0.0348829	0.0617696	-0.173656	-0.0695589	0.714041	2.09	-0.167664	-0.119399	-0.183177	0.410434	2.09
0.34	-0.00238612	-0.03645	-0.0811078	0.266461	0.96267	-0.227252	0.0306137	0.0908028	-0.112147	0.198908	0.344845	0.18111	0	0.506908	-0.108041	-0.072935	0.775182	0.0800953	-0.0116752	0	-0.0968618	0.0529555	0.0434957	0.0748424	-0.177179	-0.0652006	0.727765	2.09	-0.181144	-0.121457	-0.193724	0.410042	2.09
0.35	-0.00181048	-0.0368458	-0.08924	0.27782	0.961921	-0.225921	0.0122805	0.0915128	-0.103464	0.191935	0.354682	0.183583	0	0.509406	-0.109646	-0.0850989	0.713451	0.0760492	0.0189127	0	-0.100097	0.0527602	0.0518381	0.0883546	-0.180794	-0.0599635	0.74054	2.09	-0.195065	-0.122587	-0.207453	0.412076	2.09
0.36	-0.00115658	-0.0379719	-0.0975226	0.289234	0.960911	-0.224624	-0.00649778	0.0927594	-0.0940326	0.184661	0.364563	0.184945	0	0.509563	-0.112044	-0.0971397	0.649532	0.0709137	0.050291	0	-0.103433	0.0533966	0.0598801	0.102153	-0.184454	-0.054009	0.752411	2.09	-0.209181	-0.123042	-0.2221	0.415377	2.09
0.37	-0.000265702	-0.0397966	-0.105878	0.300727	0.959661	-0.223372	-0.0260099	0.0944571	-0.083878	0.176931	0.374365	0.185078	0	0.507358	-0.115036	-0.109074	0.584102	0.0657848	0.081554	0	-0.107018	0.0548061	0.067569	0.116159	-0.18809	-0.0474327	0.763454	2.09	-0.223382	-0.122832	-0.23721	0.419271	2.09
0.38	0.00098636	-0.042314	-0.114211	0.312323	0.958191	-0.222182	-0.0464458	0.0965441	-0.0730096	0.168697	0.38398	0.183849	0	0.502867	-0.118404	-0.120729	0.517938	0.0615519	0.111183	0	-0.110965	0.0569678	0.0748599	0.130233	-0.191647	-0.0404022	0.773814	2.09	-0.237531	-0.12198	-0.252452	0.423197	2.09
